<svg xmlns="http://www.w3.org/2000/svg" width="120" height="40" viewBox="0 0 120 40">
    <path fill="#FFF" fill-rule="evenodd" d="M35.177 26.774a.199.199 0 0 0 .01-.026h.006-.007A16.435 16.435 0 0 0 36.626 20a16.565 16.565 0 0 0-4.971-11.846c-3.004-2.957-7.117-4.787-11.659-4.787-4.542 0-8.654 1.83-11.658 4.787H3.9C7.546 3.216 13.401 0 19.996 0c6.596 0 12.45 3.216 16.095 8.154.27.364.521.74.765 1.123A19.87 19.87 0 0 1 39.992 20c0 3.803-1.07 7.362-2.924 10.393H10.563l2.6-3.645 3.777-5.282v-.007a3.295 3.295 0 0 1-.337-1.46 3.392 3.392 0 0 1 3.393-3.393c.132 0 .258.007.39.027l2.647-3.711H4.951A16.512 16.512 0 0 0 3.367 20a16.576 16.576 0 0 0 4.647 11.515c3.024 3.15 7.275 5.118 11.982 5.118 4.707 0 8.959-1.968 11.982-5.118h4.35C32.704 36.64 26.736 40 19.996 40S7.288 36.64 3.664 31.515A19.843 19.843 0 0 1 0 20c0-3.942 1.155-7.62 3.135-10.723h26.967l-2.594 3.645-4.291 6.015a3.393 3.393 0 0 1-3.182 4.457l-2.396 3.354h17.546a.177.177 0 0 1-.009.026zm-.017.04zm-15.164-8.557c.964 0 1.75.779 1.75 1.743 0 .964-.786 1.75-1.75 1.75s-1.75-.786-1.75-1.75.786-1.743 1.75-1.743zm54.34-3.55c-.405 0-.793.033-1.165.096V12.07c.38-.042.765-.07 1.165-.07.854 0 1.714.1 2.555.294.645.152 1.32.37 2.004.65.51.207.841.707.841 1.271a1.38 1.38 0 0 1-1.372 1.387c-.18 0-.355-.036-.523-.108-.414-.175-.82-.322-1.208-.436a8.157 8.157 0 0 0-2.297-.35zM50.424 28c-.413 0-.784-.23-.968-.6a1.075 1.075 0 0 1 .102-1.133L58.3 14.644H50.66a1.324 1.324 0 0 1-1.322-1.322c0-.728.593-1.322 1.322-1.322h10.888c.412 0 .783.229.968.598.184.368.145.804-.103 1.133l-8.75 11.67h8.2c.716 0 1.3.582 1.3 1.3 0 .716-.584 1.3-1.3 1.3H50.424zm68.157 0c-.784 0-1.42-.637-1.42-1.42v-9.893l-4.103 4.782a1.08 1.08 0 0 1-1.644 0l-4.092-4.78v9.891c0 .783-.637 1.42-1.419 1.42s-1.42-.637-1.42-1.42V13.082c0-.596.486-1.082 1.082-1.082h.846c.316 0 .617.138.822.378l5.003 5.85 5.013-5.85c.207-.24.507-.378.822-.378h.846c.597 0 1.083.486 1.083 1.082V26.58c0 .783-.637 1.42-1.42 1.42zm-48.298-4.25a5.144 5.144 0 0 0 2.166 1.27v2.814a8.108 8.108 0 0 1-.779-.182 8.655 8.655 0 0 1-2.27-1.03 7.994 7.994 0 0 1-2.684-2.884 7.851 7.851 0 0 1-.958-3.812 7.62 7.62 0 0 1 .631-3.032 7.677 7.677 0 0 1 1.795-2.566 8.299 8.299 0 0 1 2.772-1.75 8.668 8.668 0 0 1 1.493-.408v2.808a5.277 5.277 0 0 0-2.141 1.242c-1.063 1.013-1.58 2.25-1.58 3.78 0 1.512.51 2.738 1.555 3.75zm8.202.476c.76 0 1.378.623 1.378 1.389 0 .54-.308 1.03-.785 1.25-.696.322-1.414.58-2.13.768-.925.244-1.853.367-2.759.367-.345 0-.683-.023-1.018-.06V25.18c.332.052.676.08 1.039.08.816 0 1.657-.138 2.497-.414.395-.13.797-.292 1.195-.484.185-.09.38-.135.583-.135zm20.33-7.283a7.96 7.96 0 0 1 .61 3.12 7.66 7.66 0 0 1-.626 3.043 7.828 7.828 0 0 1-1.777 2.564 8.36 8.36 0 0 1-2.689 1.739 8.434 8.434 0 0 1-2.794.574v-2.74a5.282 5.282 0 0 0 1.668-.373 5.103 5.103 0 0 0 1.703-1.151A5.218 5.218 0 0 0 96.453 20c0-.702-.133-1.375-.394-2.002a5.478 5.478 0 0 0-1.17-1.728 5.109 5.109 0 0 0-1.7-1.163 5.18 5.18 0 0 0-1.65-.382v-2.709c.975.042 1.918.23 2.804.584 1.003.4 1.897.983 2.659 1.731.799.778 1.41 1.657 1.813 2.611zm-9.687 7.916c.541.222 1.108.347 1.69.384v2.74a8.397 8.397 0 0 1-2.806-.59 8.187 8.187 0 0 1-2.657-1.724 7.967 7.967 0 0 1-1.81-2.624 8.008 8.008 0 0 1-.613-3.12c0-1.03.213-2.046.632-3.016a7.914 7.914 0 0 1 1.792-2.579 8.28 8.28 0 0 1 2.672-1.733 8.36 8.36 0 0 1 2.79-.581v2.71a5.103 5.103 0 0 0-1.644.387 5.614 5.614 0 0 0-1.742 1.163 4.939 4.939 0 0 0-1.132 1.683 5.372 5.372 0 0 0-.396 2.04 5.2 5.2 0 0 0 1.531 3.718c.482.495 1.05.878 1.693 1.142z"/>
</svg>
